{
    "asset" : {
        "generator" : "Khronos glTF Blender I/O v1.2.75",
        "version" : "2.0"
    },
    "scene" : 0,
    "scenes" : [
        {
            "name" : "Scene",
            "nodes" : [
                0
            ]
        }
    ],
    "nodes" : [
        {
            "mesh" : 0,
            "name" : "city",
            "rotation" : [
                0.7071068286895752,
                0,
                0,
                0.7071067094802856
            ]
        }
    ],
    "materials" : [
        {
            "doubleSided" : true,
            "emissiveFactor" : [
                0,
                0,
                0
            ],
            "name" : "_Lumiandefault",
            "pbrMetallicRoughness" : {
                "baseColorFactor" : [
                    0.5879999995231628,
                    0.5879999995231628,
                    0.5879999995231628,
                    1
                ],
                "metallicFactor" : 0,
                "roughnessFactor" : 0.8945907354354858
            }
        },
        {
            "doubleSided" : true,
            "emissiveFactor" : [
                0,
                0,
                0
            ],
            "name" : "_LumianinitialShadingGroup",
            "pbrMetallicRoughness" : {
                "baseColorFactor" : [
                    0.05000000074505806,
                    0.05000000074505806,
                    0.05000000074505806,
                    1
                ],
                "metallicFactor" : 0,
                "roughnessFactor" : 0.8174257874488831
            }
        },
        {
            "doubleSided" : true,
            "emissiveFactor" : [
                0,
                0,
                0
            ],
            "name" : "_Citylambert2SG",
            "pbrMetallicRoughness" : {
                "baseColorTexture" : {
                    "index" : 0,
                    "texCoord" : 0
                },
                "metallicFactor" : 0,
                "roughnessFactor" : 0.8174257874488831
            }
        },
        {
            "doubleSided" : true,
            "emissiveFactor" : [
                0,
                0,
                0
            ],
            "name" : "_Citylou3SG",
            "pbrMetallicRoughness" : {
                "baseColorTexture" : {
                    "index" : 1,
                    "texCoord" : 0
                },
                "metallicFactor" : 0,
                "roughnessFactor" : 0.8174257874488831
            }
        },
        {
            "doubleSided" : true,
            "emissiveFactor" : [
                0,
                0,
                0
            ],
            "name" : "_Citylou4SG",
            "pbrMetallicRoughness" : {
                "baseColorTexture" : {
                    "index" : 2,
                    "texCoord" : 0
                },
                "metallicFactor" : 0,
                "roughnessFactor" : 0.8174257874488831
            }
        },
        {
            "doubleSided" : true,
            "emissiveFactor" : [
                0,
                0,
                0
            ],
            "name" : "_Citylou5SG",
            "pbrMetallicRoughness" : {
                "baseColorTexture" : {
                    "index" : 3,
                    "texCoord" : 0
                },
                "metallicFactor" : 0,
                "roughnessFactor" : 0.8174257874488831
            }
        },
        {
            "doubleSided" : true,
            "emissiveFactor" : [
                0,
                0,
                0
            ],
            "name" : "_Citylou6SG",
            "pbrMetallicRoughness" : {
                "baseColorTexture" : {
                    "index" : 4,
                    "texCoord" : 0
                },
                "metallicFactor" : 0,
                "roughnessFactor" : 0.8174257874488831
            }
        },
        {
            "doubleSided" : true,
            "emissiveFactor" : [
                0,
                0,
                0
            ],
            "name" : "_Citylou7SG",
            "pbrMetallicRoughness" : {
                "baseColorTexture" : {
                    "index" : 5,
                    "texCoord" : 0
                },
                "metallicFactor" : 0,
                "roughnessFactor" : 0.8174257874488831
            }
        }
    ],
    "meshes" : [
        {
            "name" : "city",
            "primitives" : [
                {
                    "attributes" : {
                        "POSITION" : 0,
                        "NORMAL" : 1,
                        "TEXCOORD_0" : 2
                    },
                    "indices" : 3,
                    "material" : 0
                },
                {
                    "attributes" : {
                        "POSITION" : 4,
                        "NORMAL" : 5,
                        "TEXCOORD_0" : 6
                    },
                    "indices" : 7,
                    "material" : 1
                },
                {
                    "attributes" : {
                        "POSITION" : 8,
                        "NORMAL" : 9,
                        "TEXCOORD_0" : 10
                    },
                    "indices" : 11,
                    "material" : 2
                },
                {
                    "attributes" : {
                        "POSITION" : 12,
                        "NORMAL" : 13,
                        "TEXCOORD_0" : 14
                    },
                    "indices" : 15,
                    "material" : 3
                },
                {
                    "attributes" : {
                        "POSITION" : 16,
                        "NORMAL" : 17,
                        "TEXCOORD_0" : 18
                    },
                    "indices" : 19,
                    "material" : 4
                },
                {
                    "attributes" : {
                        "POSITION" : 20,
                        "NORMAL" : 21,
                        "TEXCOORD_0" : 22
                    },
                    "indices" : 23,
                    "material" : 5
                },
                {
                    "attributes" : {
                        "POSITION" : 24,
                        "NORMAL" : 25,
                        "TEXCOORD_0" : 26
                    },
                    "indices" : 27,
                    "material" : 6
                },
                {
                    "attributes" : {
                        "POSITION" : 28,
                        "NORMAL" : 29,
                        "TEXCOORD_0" : 30
                    },
                    "indices" : 31,
                    "material" : 7
                }
            ]
        }
    ],
    "textures" : [
        {
            "source" : 0
        },
        {
            "source" : 1
        },
        {
            "source" : 2
        },
        {
            "source" : 3
        },
        {
            "source" : 4
        },
        {
            "source" : 5
        }
    ],
    "images" : [
        {
            "bufferView" : 12,
            "mimeType" : "image/jpeg",
            "name" : "edge_02_diffuse"
        },
        {
            "bufferView" : 17,
            "mimeType" : "image/jpeg",
            "name" : "edge_03_diffuse"
        },
        {
            "bufferView" : 22,
            "mimeType" : "image/jpeg",
            "name" : "edge_04_diffuse"
        },
        {
            "bufferView" : 27,
            "mimeType" : "image/jpeg",
            "name" : "edge_05_diffuse"
        },
        {
            "bufferView" : 32,
            "mimeType" : "image/jpeg",
            "name" : "edge_06_diffuse"
        },
        {
            "bufferView" : 37,
            "mimeType" : "image/jpeg",
            "name" : "edge_07_diffuse"
        }
    ],
    "accessors" : [
        {
            "bufferView" : 0,
            "componentType" : 5126,
            "count" : 37,
            "max" : [
                20.997947692871094,
                19.277389526367188,
                5.010594577470329e-06
            ],
            "min" : [
                -21.151153564453125,
                -18.044509887695312,
                5.010594577470329e-06
            ],
            "type" : "VEC3"
        },
        {
            "bufferView" : 1,
            "componentType" : 5126,
            "count" : 37,
            "type" : "VEC3"
        },
        {
            "bufferView" : 2,
            "componentType" : 5126,
            "count" : 37,
            "type" : "VEC2"
        },
        {
            "bufferView" : 3,
            "componentType" : 5123,
            "count" : 81,
            "type" : "SCALAR"
        },
        {
            "bufferView" : 4,
            "componentType" : 5126,
            "count" : 90,
            "max" : [
                20.997947692871094,
                19.277389526367188,
                0.14640501141548157
            ],
            "min" : [
                -21.151153564453125,
                -18.044509887695312,
                0.14640501141548157
            ],
            "type" : "VEC3"
        },
        {
            "bufferView" : 5,
            "componentType" : 5126,
            "count" : 90,
            "type" : "VEC3"
        },
        {
            "bufferView" : 6,
            "componentType" : 5126,
            "count" : 90,
            "type" : "VEC2"
        },
        {
            "bufferView" : 7,
            "componentType" : 5123,
            "count" : 132,
            "type" : "SCALAR"
        },
        {
            "bufferView" : 8,
            "componentType" : 5126,
            "count" : 1906,
            "max" : [
                14.335548400878906,
                18.557491302490234,
                5.010594577470329e-06
            ],
            "min" : [
                -20.447254180908203,
                0.8112888336181641,
                -2.368195056915283
            ],
            "type" : "VEC3"
        },
        {
            "bufferView" : 9,
            "componentType" : 5126,
            "count" : 1906,
            "type" : "VEC3"
        },
        {
            "bufferView" : 10,
            "componentType" : 5126,
            "count" : 1906,
            "type" : "VEC2"
        },
        {
            "bufferView" : 11,
            "componentType" : 5123,
            "count" : 2100,
            "type" : "SCALAR"
        },
        {
            "bufferView" : 13,
            "componentType" : 5126,
            "count" : 288,
            "max" : [
                6.394847869873047,
                10.158889770507812,
                5.010594577470329e-06
            ],
            "min" : [
                -16.601654052734375,
                5.935489654541016,
                -1.9288949966430664
            ],
            "type" : "VEC3"
        },
        {
            "bufferView" : 14,
            "componentType" : 5126,
            "count" : 288,
            "type" : "VEC3"
        },
        {
            "bufferView" : 15,
            "componentType" : 5126,
            "count" : 288,
            "type" : "VEC2"
        },
        {
            "bufferView" : 16,
            "componentType" : 5123,
            "count" : 312,
            "type" : "SCALAR"
        },
        {
            "bufferView" : 18,
            "componentType" : 5126,
            "count" : 5992,
            "max" : [
                11.57034683227539,
                17.758689880371094,
                5.010594577470329e-06
            ],
            "min" : [
                -19.10645294189453,
                2.978790283203125,
                -10.945895195007324
            ],
            "type" : "VEC3"
        },
        {
            "bufferView" : 19,
            "componentType" : 5126,
            "count" : 5992,
            "type" : "VEC3"
        },
        {
            "bufferView" : 20,
            "componentType" : 5126,
            "count" : 5992,
            "type" : "VEC2"
        },
        {
            "bufferView" : 21,
            "componentType" : 5123,
            "count" : 6480,
            "type" : "SCALAR"
        },
        {
            "bufferView" : 23,
            "componentType" : 5126,
            "count" : 2586,
            "max" : [
                9.727546691894531,
                18.34288787841797,
                5.010594577470329e-06
            ],
            "min" : [
                -15.85615348815918,
                4.3568878173828125,
                -3.1497950553894043
            ],
            "type" : "VEC3"
        },
        {
            "bufferView" : 24,
            "componentType" : 5126,
            "count" : 2586,
            "type" : "VEC3"
        },
        {
            "bufferView" : 25,
            "componentType" : 5126,
            "count" : 2586,
            "type" : "VEC2"
        },
        {
            "bufferView" : 26,
            "componentType" : 5123,
            "count" : 2880,
            "type" : "SCALAR"
        },
        {
            "bufferView" : 28,
            "componentType" : 5126,
            "count" : 5200,
            "max" : [
                11.611347198486328,
                19.05569076538086,
                5.010594577470329e-06
            ],
            "min" : [
                -18.363052368164062,
                3.6935882568359375,
                -7.718294620513916
            ],
            "type" : "VEC3"
        },
        {
            "bufferView" : 29,
            "componentType" : 5126,
            "count" : 5200,
            "type" : "VEC3"
        },
        {
            "bufferView" : 30,
            "componentType" : 5126,
            "count" : 5200,
            "type" : "VEC2"
        },
        {
            "bufferView" : 31,
            "componentType" : 5123,
            "count" : 5760,
            "type" : "SCALAR"
        },
        {
            "bufferView" : 33,
            "componentType" : 5126,
            "count" : 1498,
            "max" : [
                12.30434799194336,
                19.433391571044922,
                5.010594577470329e-06
            ],
            "min" : [
                -18.61565399169922,
                1.45098876953125,
                -7.6623945236206055
            ],
            "type" : "VEC3"
        },
        {
            "bufferView" : 34,
            "componentType" : 5126,
            "count" : 1498,
            "type" : "VEC3"
        },
        {
            "bufferView" : 35,
            "componentType" : 5126,
            "count" : 1498,
            "type" : "VEC2"
        },
        {
            "bufferView" : 36,
            "componentType" : 5123,
            "count" : 1680,
            "type" : "SCALAR"
        }
    ],
    "bufferViews" : [
        {
            "buffer" : 0,
            "byteLength" : 444,
            "byteOffset" : 0
        },
        {
            "buffer" : 0,
            "byteLength" : 444,
            "byteOffset" : 444
        },
        {
            "buffer" : 0,
            "byteLength" : 296,
            "byteOffset" : 888
        },
        {
            "buffer" : 0,
            "byteLength" : 162,
            "byteOffset" : 1184
        },
        {
            "buffer" : 0,
            "byteLength" : 1080,
            "byteOffset" : 1348
        },
        {
            "buffer" : 0,
            "byteLength" : 1080,
            "byteOffset" : 2428
        },
        {
            "buffer" : 0,
            "byteLength" : 720,
            "byteOffset" : 3508
        },
        {
            "buffer" : 0,
            "byteLength" : 264,
            "byteOffset" : 4228
        },
        {
            "buffer" : 0,
            "byteLength" : 22872,
            "byteOffset" : 4492
        },
        {
            "buffer" : 0,
            "byteLength" : 22872,
            "byteOffset" : 27364
        },
        {
            "buffer" : 0,
            "byteLength" : 15248,
            "byteOffset" : 50236
        },
        {
            "buffer" : 0,
            "byteLength" : 4200,
            "byteOffset" : 65484
        },
        {
            "buffer" : 0,
            "byteLength" : 409261,
            "byteOffset" : 69684
        },
        {
            "buffer" : 0,
            "byteLength" : 3456,
            "byteOffset" : 478948
        },
        {
            "buffer" : 0,
            "byteLength" : 3456,
            "byteOffset" : 482404
        },
        {
            "buffer" : 0,
            "byteLength" : 2304,
            "byteOffset" : 485860
        },
        {
            "buffer" : 0,
            "byteLength" : 624,
            "byteOffset" : 488164
        },
        {
            "buffer" : 0,
            "byteLength" : 379697,
            "byteOffset" : 488788
        },
        {
            "buffer" : 0,
            "byteLength" : 71904,
            "byteOffset" : 868488
        },
        {
            "buffer" : 0,
            "byteLength" : 71904,
            "byteOffset" : 940392
        },
        {
            "buffer" : 0,
            "byteLength" : 47936,
            "byteOffset" : 1012296
        },
        {
            "buffer" : 0,
            "byteLength" : 12960,
            "byteOffset" : 1060232
        },
        {
            "buffer" : 0,
            "byteLength" : 329504,
            "byteOffset" : 1073192
        },
        {
            "buffer" : 0,
            "byteLength" : 31032,
            "byteOffset" : 1402696
        },
        {
            "buffer" : 0,
            "byteLength" : 31032,
            "byteOffset" : 1433728
        },
        {
            "buffer" : 0,
            "byteLength" : 20688,
            "byteOffset" : 1464760
        },
        {
            "buffer" : 0,
            "byteLength" : 5760,
            "byteOffset" : 1485448
        },
        {
            "buffer" : 0,
            "byteLength" : 328120,
            "byteOffset" : 1491208
        },
        {
            "buffer" : 0,
            "byteLength" : 62400,
            "byteOffset" : 1819328
        },
        {
            "buffer" : 0,
            "byteLength" : 62400,
            "byteOffset" : 1881728
        },
        {
            "buffer" : 0,
            "byteLength" : 41600,
            "byteOffset" : 1944128
        },
        {
            "buffer" : 0,
            "byteLength" : 11520,
            "byteOffset" : 1985728
        },
        {
            "buffer" : 0,
            "byteLength" : 402646,
            "byteOffset" : 1997248
        },
        {
            "buffer" : 0,
            "byteLength" : 17976,
            "byteOffset" : 2399896
        },
        {
            "buffer" : 0,
            "byteLength" : 17976,
            "byteOffset" : 2417872
        },
        {
            "buffer" : 0,
            "byteLength" : 11984,
            "byteOffset" : 2435848
        },
        {
            "buffer" : 0,
            "byteLength" : 3360,
            "byteOffset" : 2447832
        },
        {
            "buffer" : 0,
            "byteLength" : 500993,
            "byteOffset" : 2451192
        }
    ],
    "buffers" : [
        {
            "byteLength" : 2952188,
            "uri" : "data:application/octet-stream;base64,"
        }
    ]
}
